<svg width="218" height="180" viewBox="0 0 218 180" fill="none" xmlns="http://www.w3.org/2000/svg">
<g clip-path="url(#clip0)">
<path fill-rule="evenodd" clip-rule="evenodd" d="M124.213 68.3423C124.137 69.0286 122.041 70.4012 121.201 71.3919C115.633 77.8344 117.503 81.6465 112.698 80.9602C108.809 80.3887 106.102 77.8344 104.157 82.027C103.586 83.2087 102.671 85.2676 102.861 86.8298C102.975 87.8593 103.471 88.1637 104.272 88.5069C104.845 88.7366 106.102 89.1171 106.483 89.3841C107.399 92.8531 107.703 92.7756 111.63 92.8531C113.383 92.8904 115.863 92.7756 117.616 92.3951C118.264 92.2429 118.874 92.0145 119.447 91.9371C120.4 93.996 123.642 96.5877 125.776 97.7694C127.11 98.4944 128.636 99.0271 130.199 99.4464C131.991 99.9418 133.592 100.094 134.468 101.39C136.109 103.793 132.446 106.499 142.208 105.851C146.975 105.508 143.582 101.696 146.556 97.9229C147.967 98.2287 150.636 100.858 151.628 101.659C154.145 103.718 155.631 103.07 157.425 101.086C161.084 97.1218 160.285 95.9788 157.005 93.1962C156.433 92.7008 155.023 91.5953 154.869 90.7567C156.395 89.8408 156.928 89.4602 159.293 89.3855C161.201 89.308 163.069 89.5377 164.898 89.6899C165.966 89.7673 169.626 90.1479 168.94 88.4335C168.596 87.5949 166.233 86.8325 165.698 85.7269C168.558 85.8792 172.637 87.0622 175.346 83.859C179.082 79.3606 175.459 70.8605 177.633 68.2688C177.939 67.887 178.854 67.0485 178.968 66.5918C179.045 66.286 178.701 63.5034 175.574 65.4862C170.694 68.5746 174.048 74.0624 171.914 76.9986C170.924 78.2951 169.016 78.3325 167.604 77.3417C165.584 75.893 164.859 69.8324 158.226 68.4598C155.404 67.8883 154.03 68.612 152.849 67.7735C151.706 66.935 150.599 65.7907 148.617 65.8294C146.711 65.8668 145.796 67.3542 145.756 69.2222C145.413 69.1848 141.295 67.6213 139.275 67.1259C136.873 66.5157 134.204 66.1352 131.572 66.3635C127.645 66.7066 127.949 65.2579 125.052 64.4581C121.925 63.5809 120.437 64.8774 118.722 66.3635C116.091 68.6507 116.472 65.792 112.315 66.1725C107.281 66.744 112.354 72.2719 118.226 70.1368C119.256 69.7523 120.248 69.2569 121.125 68.7615C121.964 68.2648 123.336 67.3502 124.213 68.3423Z" fill="#ED1941"/>
<path d="M160.889 42.3547C158.63 42.3547 156.566 41.7993 154.753 40.7044C151.124 38.4813 148.991 34.3434 148.74 29.0532C148.495 23.8552 150.103 18.1497 153.272 12.9864C158.092 5.0979 165.631 0 172.477 0C174.748 0 176.819 0.563466 178.631 1.67304C186.018 6.19946 186.682 18.6318 180.109 29.3884C175.281 37.2649 167.735 42.3547 160.889 42.3547ZM172.477 1.33523C166.086 1.33523 158.993 6.1821 154.411 13.6834C151.381 18.6211 149.842 24.0568 150.075 28.9891C150.304 33.8253 152.212 37.58 155.447 39.5628C157.044 40.5282 158.877 41.0182 160.889 41.0182C167.281 41.0182 174.379 36.1793 178.971 28.6914C185.16 18.5637 184.694 6.95387 177.934 2.81199C176.334 1.83193 174.499 1.33523 172.477 1.33523Z" fill="#A6A4A4"/>
<path d="M142.545 40.1476C142.287 40.1476 142.027 40.1356 141.768 40.1116C139.355 39.8859 137.137 38.6241 135.355 36.4638C132.483 32.9855 131.091 27.5778 131.632 21.9992C132.496 12.6807 138.438 5.46511 144.98 6.07531C151.461 6.67883 156.025 14.8197 155.153 24.2224C154.322 33.1537 148.783 40.1476 142.545 40.1476ZM144.206 7.37449C138.669 7.37449 133.73 13.8543 132.962 22.1261C132.453 27.3615 133.732 32.4033 136.384 35.6145C137.937 37.4946 139.841 38.5908 141.892 38.783C147.676 39.3412 153.026 32.6744 153.825 24.0995C154.63 15.4299 150.607 7.94062 144.857 7.40653C144.638 7.38517 144.422 7.37449 144.206 7.37449Z" fill="#A6A4A4"/>
<path d="M179.732 59.734C176.489 59.734 173.308 58.8341 170.535 57.1317C162.217 52.0471 159.568 41.1196 164.632 32.7731C167.89 27.4696 173.553 24.3051 179.779 24.3051C183.028 24.3051 186.216 25.2051 189.001 26.9075C193.044 29.379 195.88 33.2725 196.986 37.8697C198.092 42.4669 197.338 47.2256 194.866 51.2687C191.609 56.5709 185.952 59.734 179.732 59.734ZM179.779 25.6403C174.02 25.6403 168.785 28.5672 165.772 33.4688C161.091 41.1851 163.539 51.2914 171.233 55.9927C173.798 57.567 176.736 58.3988 179.732 58.3988C185.486 58.3988 190.717 55.4733 193.728 50.5717C196.014 46.8344 196.71 42.4335 195.688 38.1835C194.665 33.9321 192.044 30.3323 188.306 28.0478C185.729 26.4735 182.78 25.6403 179.779 25.6403Z" fill="#A6A4A4"/>
<path d="M141.814 41.4495C141.812 41.4495 141.809 41.4495 141.808 41.4495C141.439 41.4455 141.143 41.1437 141.147 40.7752L141.162 39.4399C141.166 39.0741 141.465 38.779 141.829 38.779C141.832 38.779 141.835 38.779 141.836 38.779C142.204 38.783 142.501 39.0848 142.497 39.4533L142.482 40.7885C142.478 41.1557 142.18 41.4495 141.814 41.4495Z" fill="#A6A4A4"/>
<path d="M141.585 62.8585C141.582 62.8585 141.579 62.8585 141.578 62.8585C141.21 62.8545 140.913 62.5528 140.917 62.1842L140.947 59.3295C140.951 58.9637 141.25 58.6686 141.614 58.6686C141.617 58.6686 141.619 58.6686 141.621 58.6686C141.989 58.6726 142.286 58.9743 142.282 59.3429L142.252 62.1976C142.248 62.5634 141.951 62.8585 141.585 62.8585ZM141.662 55.7217C141.66 55.7217 141.657 55.7217 141.656 55.7217C141.287 55.7177 140.991 55.416 140.995 55.0474L141.024 52.1927C141.028 51.8269 141.327 51.5318 141.692 51.5318C141.694 51.5318 141.697 51.5318 141.697 51.5318C142.067 51.5358 142.363 51.8376 142.359 52.2061L142.33 55.0608C142.326 55.428 142.027 55.7217 141.662 55.7217ZM141.738 48.5863C141.736 48.5863 141.733 48.5863 141.73 48.5863C141.363 48.5823 141.067 48.2805 141.071 47.912L141.101 45.0573C141.105 44.6914 141.405 44.3963 141.769 44.3963C141.772 44.3963 141.774 44.3963 141.777 44.3963C142.144 44.4003 142.441 44.7021 142.437 45.0706L142.406 47.9253C142.402 48.2912 142.103 48.5863 141.738 48.5863Z" fill="#A6A4A4"/>
<path d="M141.523 68.4758C141.473 68.4758 141.421 68.4704 141.37 68.4571C141.065 68.385 140.852 68.1126 140.856 67.8001L140.87 66.4649C140.874 66.0991 141.174 65.804 141.538 65.804C141.541 65.804 141.543 65.804 141.545 65.804C141.704 65.8053 141.851 65.8627 141.963 65.9575C142.107 65.9228 142.264 65.9388 142.405 66.0096C142.736 66.1725 142.873 66.5717 142.71 66.9029L142.123 68.1019C142.009 68.3342 141.774 68.4758 141.523 68.4758Z" fill="#A6A4A4"/>
<path d="M143.729 63.9801C143.63 63.9801 143.53 63.9587 143.434 63.912C143.104 63.7491 142.967 63.3498 143.128 63.0187L144.207 60.8209C144.37 60.4898 144.771 60.3536 145.102 60.5152C145.432 60.6781 145.569 61.0773 145.408 61.4084L144.329 63.6062C144.212 63.8425 143.975 63.9801 143.729 63.9801ZM146.424 58.4843C146.325 58.4843 146.225 58.4629 146.13 58.4162C145.799 58.2533 145.661 57.8541 145.824 57.5229L146.903 55.3251C147.066 54.994 147.47 54.8578 147.796 55.0194C148.127 55.1823 148.265 55.5815 148.102 55.9126L147.023 58.1104C146.908 58.3481 146.671 58.4843 146.424 58.4843ZM149.121 52.9898C149.022 52.9898 148.922 52.9685 148.827 52.9217C148.496 52.7588 148.358 52.3596 148.521 52.0285L149.599 49.8307C149.762 49.4995 150.166 49.3647 150.492 49.5249C150.823 49.6878 150.961 50.087 150.798 50.4182L149.72 52.616C149.604 52.8523 149.366 52.9898 149.121 52.9898ZM151.815 47.494C151.716 47.494 151.616 47.4727 151.52 47.4259C151.19 47.263 151.053 46.8638 151.214 46.5327L152.293 44.3349C152.456 44.0037 152.857 43.8662 153.188 44.0291C153.518 44.192 153.655 44.5912 153.494 44.9224L152.415 47.1202C152.3 47.3578 152.062 47.494 151.815 47.494Z" fill="#A6A4A4"/>
<path d="M154.511 41.9996C154.412 41.9996 154.312 41.9782 154.217 41.9315C153.886 41.7686 153.749 41.3694 153.912 41.0382L154.499 39.8392C154.662 39.5081 155.067 39.3719 155.392 39.5334C155.724 39.6963 155.861 40.0956 155.698 40.4267L155.111 41.6257C154.995 41.8634 154.757 41.9996 154.511 41.9996Z" fill="#A6A4A4"/>
<path d="M141.523 68.4371C141.31 68.4371 141.1 68.3343 140.971 68.1434C140.765 67.8376 140.844 67.4223 141.149 67.2167L142.255 66.4676C142.561 66.262 142.975 66.3408 143.182 66.6466C143.387 66.9523 143.309 67.3676 143.003 67.5732L141.897 68.3223C141.784 68.4011 141.653 68.4371 141.523 68.4371Z" fill="#A6A4A4"/>
<path d="M145.058 66.047C144.844 66.047 144.634 65.9442 144.505 65.7532C144.298 65.4475 144.378 65.0322 144.684 64.8266L147.111 63.1843C147.416 62.9773 147.832 63.0574 148.038 63.3632C148.245 63.669 148.165 64.0842 147.859 64.2898L145.432 65.9322C145.317 66.0096 145.187 66.047 145.058 66.047ZM149.914 62.7623C149.7 62.7623 149.491 62.6595 149.361 62.4686C149.154 62.1628 149.234 61.7476 149.54 61.5419L151.968 59.8996C152.273 59.694 152.687 59.7728 152.894 60.0785C153.101 60.3843 153.021 60.7996 152.715 61.0052L150.288 62.6475C150.173 62.725 150.042 62.7623 149.914 62.7623ZM154.768 59.4777C154.554 59.4777 154.344 59.3749 154.215 59.1839C154.008 58.8782 154.088 58.4629 154.394 58.2573L156.821 56.615C157.127 56.408 157.541 56.4881 157.748 56.7939C157.955 57.0997 157.875 57.5149 157.569 57.7205L155.141 59.3629C155.028 59.4403 154.897 59.4777 154.768 59.4777ZM159.624 56.193C159.41 56.193 159.2 56.0902 159.071 55.8993C158.864 55.5935 158.944 55.1783 159.25 54.9726L161.677 53.3303C161.982 53.1247 162.398 53.2035 162.604 53.5092C162.811 53.815 162.731 54.2302 162.425 54.4359L159.998 56.0782C159.883 56.1556 159.753 56.193 159.624 56.193Z" fill="#A6A4A4"/>
<path d="M164.48 52.9084C164.266 52.9084 164.057 52.8056 163.927 52.6146C163.721 52.3089 163.8 51.8936 164.106 51.688L165.212 50.9389C165.517 50.7333 165.931 50.8121 166.138 51.1178C166.344 51.4236 166.265 51.8389 165.959 52.0445L164.854 52.7949C164.739 52.8723 164.608 52.9084 164.48 52.9084Z" fill="#A6A4A4"/>
<path d="M30.2288 148.228C29.8602 148.228 29.5612 147.929 29.5612 147.56V135.563C29.5612 134.173 31.9619 132.873 33.0514 132.873H88.4928C88.9815 132.873 89.2699 133.081 89.4248 133.254C89.8347 133.712 89.7626 134.345 89.6931 134.96C89.6691 135.162 89.6451 135.371 89.6451 135.563V146.225C89.6451 146.593 89.346 146.892 88.9775 146.892C88.6089 146.892 88.3112 146.593 88.3112 146.225V135.563C88.3112 135.323 88.3392 135.062 88.3673 134.81C88.3873 134.636 88.4166 134.373 88.4126 134.21L33.0514 134.208C32.3611 134.208 30.9391 135.172 30.8964 135.567V147.56C30.8964 147.929 30.5973 148.228 30.2288 148.228Z" fill="#A6A4A4"/>
<path d="M36.3709 141.28C35.1091 141.28 34.0823 140.255 34.0823 138.993C34.0823 137.731 35.1091 136.706 36.3709 136.706C37.6313 136.706 38.6581 137.731 38.6581 138.993C38.6581 140.255 37.6313 141.28 36.3709 141.28ZM36.3709 138.079C35.8741 138.079 35.4535 138.498 35.4535 138.995C35.4535 139.491 35.8728 139.911 36.3709 139.911C36.8662 139.911 37.2868 139.491 37.2868 138.995C37.2868 138.498 36.8662 138.079 36.3709 138.079Z" fill="#A6A4A4"/>
<path d="M52.2321 141.28C50.9703 141.28 49.9435 140.255 49.9435 138.993C49.9435 137.731 50.9703 136.706 52.2321 136.706C53.4925 136.706 54.5193 137.731 54.5193 138.993C54.5193 140.255 53.4938 141.28 52.2321 141.28ZM52.2321 138.079C51.7354 138.079 51.3148 138.498 51.3148 138.995C51.3148 139.491 51.734 139.911 52.2321 139.911C52.7274 139.911 53.148 139.491 53.148 138.995C53.148 138.498 52.7288 138.079 52.2321 138.079Z" fill="#A6A4A4"/>
<path d="M44.2207 141.28C42.9589 141.28 41.9321 140.255 41.9321 138.993C41.9321 137.731 42.9589 136.706 44.2207 136.706C45.4811 136.706 46.5079 137.731 46.5079 138.993C46.5079 140.255 45.4824 141.28 44.2207 141.28ZM44.2207 138.079C43.7239 138.079 43.3033 138.498 43.3033 138.995C43.3033 139.491 43.7226 139.911 44.2207 139.911C44.716 139.911 45.1366 139.491 45.1366 138.995C45.1366 138.498 44.7174 138.079 44.2207 138.079Z" fill="#A6A4A4"/>
<path d="M79.038 141.776C78.8604 141.776 78.6842 141.708 78.5507 141.573C78.285 141.303 78.2863 140.869 78.556 140.602L83.1559 136.046C83.4229 135.779 83.8582 135.783 84.1266 136.05C84.3923 136.32 84.3909 136.754 84.1212 137.021L79.5214 141.577C79.3865 141.71 79.2129 141.776 79.038 141.776Z" fill="#A6A4A4"/>
<path d="M83.6379 141.776C83.463 141.776 83.288 141.71 83.1559 141.578L78.556 137.022C78.2863 136.755 78.285 136.321 78.5507 136.052C78.8164 135.785 79.2517 135.781 79.5214 136.048L84.1212 140.604C84.3909 140.871 84.3923 141.305 84.1266 141.574C83.9917 141.709 83.8155 141.776 83.6379 141.776Z" fill="#A6A4A4"/>
<path d="M69.618 142.219H64.2771C63.9086 142.219 63.6095 141.92 63.6095 141.552C63.6095 141.183 63.9086 140.884 64.2771 140.884H69.618C69.9865 140.884 70.2856 141.183 70.2856 141.552C70.2856 141.92 69.9865 142.219 69.618 142.219Z" fill="#A6A4A4"/>
<path d="M122.468 175.6H101.573C100.912 175.6 98.993 175.203 98.993 173.988V129.883C98.993 129.624 99.0959 129.384 99.2841 129.205C99.7261 128.783 100.518 128.819 101.223 128.854C101.356 128.86 101.475 128.866 101.573 128.866H122.429C122.874 128.748 123.348 129.065 123.348 129.508C123.348 129.719 123.246 129.947 123.027 130.081V173.987C123.027 174.058 123.102 174.183 123.155 174.275C123.258 174.452 123.473 174.817 123.251 175.206C123.149 175.386 122.93 175.6 122.468 175.6ZM100.328 173.885C100.533 174.056 101.2 174.265 101.573 174.265H121.719C121.701 174.178 121.692 174.084 121.692 173.988V130.202H101.573C101.459 130.202 101.316 130.195 101.159 130.189C100.965 130.178 100.575 130.159 100.328 130.182V173.885Z" fill="#A6A4A4"/>
<path d="M123.46 167.622H100.772C100.392 167.622 100.085 167.315 100.085 166.936C100.085 166.556 100.391 166.249 100.772 166.249H123.46C123.839 166.249 124.146 166.556 124.146 166.936C124.146 167.315 123.839 167.622 123.46 167.622Z" fill="#A6A4A4"/>
<path d="M112.364 173.224C111.253 173.224 110.383 172.354 110.383 171.243C110.383 170.171 111.272 169.3 112.364 169.3C113.436 169.3 114.308 170.171 114.308 171.243C114.308 172.335 113.435 173.224 112.364 173.224ZM112.364 170.672C112.028 170.672 111.754 170.928 111.754 171.243C111.754 171.592 112.016 171.853 112.364 171.853C112.679 171.853 112.937 171.579 112.937 171.243C112.936 170.939 112.668 170.672 112.364 170.672Z" fill="#A6A4A4"/>
<path d="M121.692 134.208H100.328C99.9597 134.208 99.6606 133.909 99.6606 133.54C99.6606 133.172 99.9597 132.873 100.328 132.873H121.692C122.06 132.873 122.359 133.172 122.359 133.54C122.359 133.909 122.06 134.208 121.692 134.208Z" fill="#A6A4A4"/>
<path d="M122.36 161.58C121.991 161.58 121.692 161.281 121.692 160.912V146.892C121.692 146.524 121.991 146.225 122.36 146.225H133.041C133.41 146.225 133.709 146.524 133.709 146.892V155.571C133.709 155.94 133.41 156.239 133.041 156.239C132.673 156.239 132.374 155.94 132.374 155.571V147.56H123.027V160.912C123.027 161.281 122.728 161.58 122.36 161.58Z" fill="#A6A4A4"/>
<path d="M129.703 150.23H128.368V151.566H129.703V150.23Z" fill="#A6A4A4"/>
<path d="M127.033 150.23H125.698V151.566H127.033V150.23Z" fill="#A6A4A4"/>
<path d="M129.703 154.236H128.368V155.571H129.703V154.236Z" fill="#A6A4A4"/>
<path d="M127.033 154.236H125.698V155.571H127.033V154.236Z" fill="#A6A4A4"/>
<path d="M127.033 158.242H125.698V159.577H127.033V158.242Z" fill="#A6A4A4"/>
<path d="M122.36 174.932C121.991 174.932 121.692 174.633 121.692 174.265V164.918C121.692 164.55 121.991 164.25 122.36 164.25C122.728 164.25 123.027 164.55 123.027 164.918V174.265C123.027 174.633 122.728 174.932 122.36 174.932Z" fill="#A6A4A4"/>
<path d="M171.424 175.665H123.308C122.928 175.665 122.621 175.36 122.621 174.979C122.621 174.598 122.927 174.293 123.308 174.293H171.424C171.803 174.293 172.11 174.598 172.11 174.979C172.11 175.36 171.803 175.665 171.424 175.665Z" fill="#A6A4A4"/>
<path d="M129.036 174.932C128.667 174.932 128.368 174.633 128.368 174.265V164.918C128.368 164.55 128.667 164.25 129.036 164.25C129.404 164.25 129.703 164.55 129.703 164.918V174.265C129.703 174.633 129.404 174.932 129.036 174.932Z" fill="#A6A4A4"/>
<path d="M134.377 174.932C134.008 174.932 133.709 174.633 133.709 174.265V164.918C133.709 164.55 134.008 164.25 134.377 164.25C134.745 164.25 135.044 164.55 135.044 164.918V174.265C135.044 174.633 134.745 174.932 134.377 174.932Z" fill="#A6A4A4"/>
<path d="M139.717 174.932C139.349 174.932 139.05 174.633 139.05 174.265V164.918C139.05 164.55 139.349 164.25 139.717 164.25C140.086 164.25 140.385 164.55 140.385 164.918V174.265C140.385 174.633 140.086 174.932 139.717 174.932Z" fill="#A6A4A4"/>
<path d="M145.058 174.932C144.69 174.932 144.391 174.633 144.391 174.265V164.918C144.391 164.55 144.69 164.25 145.058 164.25C145.427 164.25 145.726 164.55 145.726 164.918V174.265C145.726 174.633 145.427 174.932 145.058 174.932Z" fill="#A6A4A4"/>
<path d="M145.726 164.918H123.027C122.659 164.918 122.359 164.619 122.359 164.25C122.359 163.882 122.659 163.583 123.027 163.583H145.726C146.095 163.583 146.394 163.882 146.394 164.25C146.394 164.619 146.095 164.918 145.726 164.918Z" fill="#A6A4A4"/>
<path d="M133.709 144.89H120.357V147.56H133.709V144.89Z" fill="white"/>
<path d="M134.377 147.56H121.024C120.656 147.56 120.357 147.261 120.357 146.892V144.222C120.357 143.854 120.656 143.554 121.024 143.554H134.377C134.745 143.554 135.044 143.854 135.044 144.222V146.892C135.044 147.261 134.745 147.56 134.377 147.56ZM121.692 146.225H133.709V144.89H121.692V146.225Z" fill="#A6A4A4"/>
<path d="M131.039 142.219H121.692V144.89H131.039V142.219Z" fill="white"/>
<path d="M131.706 144.89H122.36C121.991 144.89 121.692 144.591 121.692 144.222V141.552C121.692 141.183 121.991 140.884 122.36 140.884H131.706C132.075 140.884 132.374 141.183 132.374 141.552V144.222C132.374 144.591 132.075 144.89 131.706 144.89ZM123.027 143.554H131.038V142.219H123.027V143.554Z" fill="#A6A4A4"/>
<path d="M129.703 138.881H127.033V141.552H129.703V138.881Z" fill="white"/>
<path d="M129.703 141.552C129.703 141.92 129.404 142.219 129.036 142.219H126.365C125.997 142.219 125.698 141.92 125.698 141.552V138.881C125.698 138.513 125.997 138.214 126.365 138.214H129.036C129.404 138.214 129.703 138.513 129.703 138.881V141.552ZM127.7 140.884H129.036V139.549H127.7V140.884Z" fill="#A6A4A4"/>
<path d="M128.416 139.336C128.037 139.336 127.73 139.029 127.73 138.65V134.267C127.73 133.887 128.036 133.58 128.416 133.58C128.797 133.58 129.102 133.887 129.102 134.267V138.65C129.102 139.029 128.795 139.336 128.416 139.336Z" fill="#A6A4A4"/>
<path d="M147.901 158.242H131.278C130.989 158.242 130.734 158.058 130.643 157.784C130.553 157.51 130.647 157.21 130.878 157.039L138.549 151.399C138.764 151.241 139.054 151.231 139.284 151.367C139.328 151.394 139.525 151.394 139.589 151.394C139.663 151.394 139.807 151.307 139.912 151.243C140.15 151.1 140.465 151.108 140.684 151.273L144.154 153.949L148.3 157.038C148.531 157.208 148.625 157.51 148.535 157.783C148.446 158.055 148.19 158.242 147.901 158.242ZM133.291 156.907H145.889L140.21 152.595C139.927 152.717 139.613 152.804 139.05 152.686L133.291 156.907Z" fill="#A6A4A4"/>
<path d="M139.588 152.678C138.561 152.678 137.759 151.874 137.759 150.849C137.759 149.819 138.579 148.982 139.588 148.982C140.618 148.982 141.456 149.819 141.456 150.849C141.457 151.858 140.619 152.678 139.588 152.678ZM139.588 150.353C139.332 150.353 139.13 150.571 139.13 150.849C139.13 151.118 139.318 151.307 139.588 151.307C139.867 151.307 140.085 151.105 140.085 150.849C140.085 150.58 139.856 150.353 139.588 150.353Z" fill="#A6A4A4"/>
<path d="M139.717 150.898C139.349 150.898 139.05 150.599 139.05 150.231V139.549C139.05 139.18 139.349 138.881 139.717 138.881C140.086 138.881 140.385 139.18 140.385 139.549V150.231C140.385 150.599 140.086 150.898 139.717 150.898Z" fill="#A6A4A4"/>
<path d="M133.041 164.25C132.673 164.25 132.374 163.951 132.374 163.583V156.907C132.374 156.538 132.673 156.239 133.041 156.239C133.41 156.239 133.709 156.538 133.709 156.907V163.583C133.709 163.951 133.41 164.25 133.041 164.25Z" fill="#A6A4A4"/>
<path d="M145.058 164.25C144.69 164.25 144.391 163.951 144.391 163.583V156.907C144.391 156.538 144.69 156.239 145.058 156.239C145.427 156.239 145.726 156.538 145.726 156.907V163.583C145.726 163.951 145.427 164.25 145.058 164.25Z" fill="#A6A4A4"/>
<path d="M148.691 146.225C148.686 146.225 148.675 146.226 148.665 146.225H139.717C139.349 146.225 139.05 145.926 139.05 145.557V140.216C139.05 139.848 139.349 139.549 139.717 139.549H148.665C148.898 139.549 149.115 139.67 149.236 139.87C149.358 140.071 149.366 140.318 149.258 140.526L148.044 142.855L149.187 145.11C149.294 145.227 149.359 145.386 149.359 145.559C149.359 145.926 149.06 146.225 148.691 146.225ZM140.385 144.89H147.578L146.697 143.151C146.601 142.959 146.602 142.732 146.701 142.54L147.565 140.884H140.385V144.89Z" fill="#A6A4A4"/>
<path d="M180.497 96.4818C180.227 96.3284 180.092 95.9983 180.19 95.6814C180.468 94.7869 180.258 93.8634 179.632 93.2127C178.933 92.4852 177.873 92.237 176.806 92.5468C176.439 92.6534 176.066 92.4419 175.968 92.0722C175.872 91.7031 176.092 91.3185 176.459 91.2119C178.019 90.7589 179.58 91.1421 180.625 92.2302C181.602 93.244 181.928 94.678 181.497 96.0651C181.383 96.434 180.998 96.6465 180.635 96.5396C180.587 96.5249 180.54 96.506 180.497 96.4818Z" fill="#A6A4A4"/>
<path d="M181.106 95.5626C181.065 95.5388 181.024 95.5089 180.987 95.474C180.708 95.2184 180.69 94.7828 180.946 94.4998C181.863 93.4915 183.192 93.0366 184.504 93.2835C185.899 93.5474 187.049 94.542 187.567 95.9456C187.698 96.3017 187.517 96.7004 187.161 96.8364C186.804 96.9698 186.411 96.7912 186.279 96.437C185.927 95.4862 185.163 94.8146 184.236 94.6377C183.386 94.4779 182.553 94.7639 181.955 95.4234C181.734 95.6674 181.38 95.7193 181.106 95.5626Z" fill="#A6A4A4"/>
<path d="M169.367 97.809C169.058 97.809 168.777 97.598 168.701 97.2843C168.479 96.3723 167.821 95.6806 166.941 95.4323C165.979 95.1626 164.945 95.4617 164.172 96.2348C163.904 96.5032 163.471 96.5032 163.201 96.2348C162.933 95.9664 162.933 95.5324 163.201 95.2641C164.33 94.1358 165.865 93.7058 167.312 94.1104C168.676 94.4936 169.695 95.5591 170.034 96.9598C170.123 97.3283 169.896 97.6995 169.529 97.789C169.474 97.8023 169.421 97.809 169.367 97.809Z" fill="#A6A4A4"/>
<path d="M169.33 97.809C169.278 97.809 169.224 97.8023 169.171 97.7903C168.803 97.7021 168.575 97.3323 168.662 96.9638C168.977 95.6379 169.928 94.5924 171.203 94.1651C172.55 93.7125 174.037 94.0102 175.181 94.9542C175.473 95.1959 175.515 95.6272 175.273 95.9196C175.03 96.212 174.596 96.2521 174.306 96.0117C173.531 95.3722 172.534 95.1652 171.637 95.4656C170.803 95.7447 170.204 96.407 169.996 97.2815C169.921 97.5966 169.64 97.809 169.33 97.809Z" fill="#A6A4A4"/>
<path d="M62.6415 162.895C62.3718 162.895 62.1141 162.734 62.0059 162.468C60.883 159.717 58.2526 157.965 55.2056 157.978C54.9546 157.978 54.7022 157.979 54.4512 158.01C54.2255 158.042 54.0172 157.957 53.8664 157.799C53.7168 157.638 53.6527 157.417 53.6928 157.202C53.8116 156.572 53.8717 155.973 53.8717 155.422C53.8717 150.798 50.109 147.035 45.4825 147.035C43.6879 147.035 41.9949 147.571 40.5835 148.586C38.3737 150.144 37.0558 152.698 37.0558 155.423V155.729C37.0558 155.963 36.937 156.179 36.7421 156.306C36.5471 156.431 36.3014 156.45 36.0865 156.354C33.9688 155.393 31.4385 155.262 28.975 156.108C28.963 156.112 28.951 156.116 28.9403 156.12C28.8575 156.144 28.7761 156.152 28.6933 156.147H28.692C28.5972 156.14 28.5037 156.112 28.4223 156.068C28.3288 156.019 28.246 155.948 28.1833 155.858C28.1419 155.798 28.1085 155.732 28.0871 155.66C28.0818 155.644 28.0778 155.629 28.0751 155.613C27.6024 153.654 25.9908 152.285 23.9666 152.125C22.0933 151.98 19.6378 152.957 18.3199 156.144C18.1744 156.495 17.7738 156.658 17.424 156.517C17.0728 156.373 16.9073 155.971 17.0528 155.621C18.6511 151.753 21.7408 150.566 24.0761 150.758C26.4595 150.946 28.4022 152.427 29.202 154.601C31.4225 153.973 33.679 154.044 35.7113 154.732C35.9156 151.823 37.4083 149.146 39.7904 147.469C41.4314 146.29 43.4008 145.665 45.4851 145.665C50.8674 145.665 55.247 150.042 55.247 155.425C55.247 155.802 55.2229 156.199 55.1749 156.608C55.2109 156.608 55.2497 156.608 55.2857 156.608C58.8174 156.608 61.9552 158.705 63.2797 161.951C63.4226 162.302 63.2543 162.703 62.9045 162.846C62.8164 162.879 62.7283 162.895 62.6415 162.895Z" fill="#A6A4A4"/>
<path d="M154.171 157.71C155.847 157.71 157.244 160.265 157.244 163.353C157.244 166.442 155.847 168.994 154.171 168.994C152.463 168.994 151.067 166.442 151.067 163.353C151.067 160.265 152.463 157.71 154.171 157.71ZM154.171 156.338C151.661 156.338 149.694 159.42 149.694 163.352C149.694 167.284 151.661 170.364 154.171 170.364C156.663 170.364 158.615 167.284 158.615 163.352C158.615 159.42 156.663 156.338 154.171 156.338Z" fill="#A6A4A4"/>
<path d="M166.188 157.71C167.864 157.71 169.261 160.265 169.261 163.353C169.261 166.442 167.864 168.994 166.188 168.994C164.481 168.994 163.084 166.442 163.084 163.353C163.084 160.265 164.481 157.71 166.188 157.71ZM166.188 156.338C163.678 156.338 161.711 159.42 161.711 163.352C161.711 167.284 163.678 170.364 166.188 170.364C168.68 170.364 170.632 167.284 170.632 163.352C170.632 159.42 168.68 156.338 166.188 156.338Z" fill="#A6A4A4"/>
<path d="M154.405 174.932C154.037 174.932 153.737 174.633 153.737 174.265V168.924C153.737 168.555 154.037 168.256 154.405 168.256C154.774 168.256 155.073 168.555 155.073 168.924V174.265C155.073 174.633 154.774 174.932 154.405 174.932Z" fill="#A6A4A4"/>
<path d="M87.8078 175.931C86.4205 175.931 85.1414 175.088 83.9036 174.275C82.7847 173.538 81.7299 172.844 80.7538 172.844C79.7764 172.844 78.7109 173.54 77.5826 174.275C76.3355 175.09 75.0484 175.931 73.6598 175.931C72.2965 175.931 71.02 175.094 69.7863 174.285C68.7061 173.577 67.5885 172.844 66.6071 172.844C65.639 172.844 64.5829 173.54 63.4639 174.275C63.0634 174.538 62.6628 174.803 62.2636 175.036C61.9391 175.227 61.5172 175.121 61.3249 174.791C61.1326 174.464 61.2421 174.043 61.5706 173.852C61.9511 173.629 62.3303 173.379 62.7109 173.128C63.9486 172.314 65.2291 171.471 66.6071 171.471C67.9984 171.471 69.2909 172.318 70.5393 173.136C71.6542 173.868 72.7064 174.558 73.6598 174.558C74.6385 174.558 75.704 173.863 76.8323 173.126C78.0794 172.313 79.3665 171.471 80.7538 171.471C82.1411 171.471 83.4203 172.314 84.658 173.127C85.7769 173.864 86.8318 174.558 87.8078 174.558C88.7852 174.558 89.8507 173.863 90.979 173.126C92.2261 172.313 93.5133 171.471 94.9006 171.471C96.2772 171.471 97.555 172.318 98.7901 173.136C99.5178 173.617 100.205 174.072 100.877 174.342C101.228 174.482 101.4 174.882 101.258 175.234C101.117 175.585 100.717 175.757 100.366 175.615C99.5632 175.294 98.7847 174.779 98.033 174.279C96.9181 173.54 95.8646 172.843 94.9006 172.843C93.9232 172.843 92.8577 173.538 91.7294 174.275C90.4823 175.09 89.1938 175.931 87.8078 175.931Z" fill="#A6A4A4"/>
<path d="M87.8079 171.701C86.4206 171.701 85.1414 170.858 83.9037 170.045C82.7847 169.308 81.7299 168.614 80.7539 168.614C79.7765 168.614 78.711 169.31 77.5827 170.045C76.3356 170.86 75.0484 171.701 73.6598 171.701C72.2965 171.701 71.0201 170.864 69.7863 170.055C68.7061 169.347 67.5885 168.614 66.6071 168.614C65.6204 168.614 64.5469 169.319 63.4093 170.065C63.1075 170.262 62.8071 170.461 62.5053 170.646C62.1822 170.844 61.7576 170.742 61.5613 170.422C61.3637 170.099 61.4638 169.675 61.7856 169.478C62.0767 169.299 62.3664 169.109 62.6549 168.918C63.91 168.095 65.2091 167.243 66.6058 167.243C67.9971 167.243 69.2896 168.089 70.538 168.909C71.6529 169.639 72.7051 170.331 73.6585 170.331C74.6372 170.331 75.7027 169.635 76.831 168.898C78.0781 168.085 79.3652 167.244 80.7525 167.244C82.1398 167.244 83.419 168.086 84.6567 168.901C85.7757 169.637 86.8305 170.332 87.8065 170.332C88.7839 170.332 89.8494 169.637 90.9777 168.9C92.2248 168.085 93.512 167.244 94.8993 167.244C96.2745 167.244 97.551 168.089 98.7861 168.906C99.5138 169.388 100.203 169.845 100.873 170.112C101.226 170.252 101.396 170.651 101.256 171.004C101.116 171.356 100.714 171.523 100.364 171.387C99.5605 171.067 98.7808 170.55 98.0277 170.051C96.9128 169.314 95.8606 168.617 94.8979 168.617C93.9205 168.617 92.855 169.312 91.7268 170.049C90.4823 170.86 89.1938 171.701 87.8079 171.701Z" fill="#A6A4A4"/>
<path d="M60.3155 167.928C60.1126 167.928 59.911 167.838 59.7761 167.666C59.5424 167.368 59.5932 166.937 59.8923 166.703L61.4932 165.444C61.9512 165.168 62.3304 164.918 62.7109 164.667C63.9487 163.852 65.2292 163.01 66.6071 163.01C67.9984 163.01 69.2909 163.856 70.5394 164.675C71.6543 165.405 72.7064 166.097 73.6598 166.097C74.6385 166.097 75.704 165.401 76.8323 164.664C78.0794 163.851 79.3666 163.01 80.7539 163.01C82.1412 163.01 83.4203 163.851 84.6581 164.666C85.7757 165.401 86.8318 166.097 87.8079 166.097C88.7853 166.097 89.8508 165.401 90.979 164.664C92.2261 163.851 93.5133 163.01 94.9006 163.01C96.2772 163.01 97.5537 163.855 98.7901 164.674C99.5178 165.156 100.204 165.611 100.877 165.879C101.228 166.02 101.4 166.419 101.259 166.771C101.117 167.122 100.724 167.293 100.366 167.153C99.5632 166.833 98.7848 166.316 98.0317 165.818C96.9168 165.08 95.8646 164.381 94.9006 164.381C93.9232 164.381 92.8577 165.077 91.7294 165.814C90.4823 166.627 89.1952 167.468 87.8079 167.468C86.4206 167.468 85.1414 166.627 83.9037 165.813C82.7861 165.077 81.7299 164.381 80.7539 164.381C79.7765 164.381 78.711 165.077 77.5827 165.813C76.3356 166.627 75.0484 167.468 73.6598 167.468C72.2965 167.468 71.0201 166.632 69.7876 165.822C68.7061 165.114 67.5899 164.381 66.6071 164.381C65.6391 164.381 64.5829 165.077 63.464 165.813C63.0634 166.077 62.6629 166.34 62.2636 166.574L60.7388 167.779C60.6146 167.88 60.4651 167.928 60.3155 167.928Z" fill="#A6A4A4"/>
<path fill-rule="evenodd" clip-rule="evenodd" d="M184.278 132.322C186.222 132.322 187.786 133.886 187.786 135.83C187.786 137.507 186.643 138.985 185.079 139.367L184.278 139.549H166.281H166.167C163.878 139.549 162.01 137.499 162.01 135.175C162.01 132.811 163.917 130.852 166.281 130.852C167.043 130.852 167.768 131.054 168.417 131.397C168.99 128.157 171.659 125.666 175.241 125.666C178.864 125.666 182.143 129.015 182.221 132.826C182.905 132.596 183.553 132.322 184.278 132.322Z" fill="white"/>
<path d="M185.079 139.701C185.038 139.701 184.995 139.697 184.954 139.689L184.153 139.537L166.281 139.549C163.462 139.549 161.343 137.481 161.343 134.841C161.343 132.137 163.511 130.018 166.281 130.018C166.816 130.018 167.361 130.129 167.954 130.364C168.89 127.141 171.776 124.957 175.241 124.957C178.944 124.957 182.29 128.114 182.817 131.906C183.274 131.767 183.752 131.658 184.279 131.658C186.583 131.658 188.455 133.531 188.455 135.833C188.455 137.724 187.222 139.199 185.239 139.685C185.186 139.694 185.133 139.701 185.079 139.701ZM166.281 131.352C164.26 131.352 162.678 132.883 162.678 134.839C162.678 136.731 164.21 138.212 166.167 138.212H184.278L185.051 138.35C186.349 137.987 187.118 137.052 187.118 135.829C187.118 134.263 185.844 132.989 184.278 132.989C183.749 132.989 183.251 133.157 182.677 133.352L182.43 133.436C182.227 133.503 182.007 133.469 181.835 133.348C181.661 133.225 181.556 133.028 181.552 132.817C181.482 129.4 178.474 126.29 175.24 126.29C172.094 126.29 169.616 128.354 169.073 131.428C169.036 131.639 168.9 131.818 168.709 131.911C168.517 132.003 168.291 132.001 168.104 131.902C167.394 131.528 166.813 131.352 166.281 131.352Z" fill="#A6A4A4"/>
<path d="M181.114 161.105C181.039 161.105 180.964 161.093 180.889 161.066C180.53 160.942 180.342 160.552 180.466 160.194C181.095 158.378 180.199 156.782 179.149 155.896C177.922 154.858 176.352 154.607 175.153 155.263C174.885 155.407 174.558 155.362 174.343 155.151C174.128 154.939 174.076 154.61 174.216 154.343C174.543 153.721 174.547 152.574 173.989 151.731C173.525 151.036 172.8 150.722 171.831 150.81C171.613 150.825 171.39 150.738 171.246 150.566C171.103 150.393 171.051 150.162 171.11 149.947C171.712 147.716 170.473 146.183 168.976 145.656C167.383 145.093 165.327 145.556 164.318 147.849C164.215 148.081 163.992 148.238 163.737 148.257C163.487 148.28 163.24 148.15 163.105 147.935C162.132 146.372 160.353 145.4 158.464 145.4C155.457 145.4 153.011 147.846 153.011 150.851C153.011 151.231 152.705 151.538 152.325 151.538C151.944 151.538 151.638 151.231 151.638 150.851C151.638 147.089 154.7 144.028 158.463 144.028C160.438 144.028 162.319 144.883 163.597 146.313C165.085 144.094 167.561 143.703 169.432 144.364C171.262 145.01 172.913 146.842 172.599 149.453C173.666 149.572 174.546 150.096 175.129 150.974C175.631 151.73 175.862 152.699 175.801 153.601C177.22 153.344 178.772 153.782 180.035 154.85C181.788 156.334 182.466 158.608 181.761 160.645C181.664 160.926 181.398 161.105 181.114 161.105Z" fill="#A6A4A4"/>
<path d="M61.5359 175.285C61.3757 175.285 61.2154 175.23 61.0846 175.116C60.7989 174.867 60.7695 174.434 61.0178 174.147C62.2623 172.72 62.05 170.207 60.5371 168.428C58.8294 166.423 56.2457 166.196 53.6233 167.823C53.4511 167.93 53.2415 167.957 53.0505 167.894C52.8583 167.833 52.7034 167.69 52.6273 167.503C51.1999 164.049 48.5535 162.985 46.5119 163.147C44.3422 163.32 42.6157 164.788 42.1097 166.891C42.0963 166.95 42.0776 167.008 42.0483 167.062C42.0109 167.134 41.9615 167.199 41.9027 167.252C41.8279 167.32 41.7438 167.368 41.6517 167.398C41.5596 167.428 41.4567 167.439 41.3593 167.426C41.2765 167.416 41.1977 167.392 41.1229 167.353C41.0695 167.327 41.0215 167.293 40.9787 167.253C39.2483 165.754 36.6019 164.579 33.7712 167.488C33.5335 167.733 33.1543 167.765 32.8779 167.567C32.6029 167.368 32.5147 166.997 32.6709 166.695C32.6336 163.818 31.6442 163.107 29.2581 161.393C27.7333 160.305 25.92 159.729 24.0133 159.729C23.6341 159.729 23.327 159.422 23.327 159.043C23.327 158.664 23.6328 158.357 24.0133 158.357C26.2084 158.357 28.2967 159.02 30.0552 160.277C32.2263 161.836 33.6377 162.85 33.9421 165.527C36.1853 163.903 38.6995 163.923 41.0896 165.6C41.9828 163.435 43.9763 161.972 46.4024 161.779C48.7484 161.587 51.7968 162.698 53.5726 166.272C57.0936 164.436 59.991 165.671 61.58 167.539C63.5548 169.86 63.7591 173.088 62.0526 175.05C61.9178 175.205 61.7282 175.285 61.5359 175.285Z" fill="#A6A4A4"/>
<path fill-rule="evenodd" clip-rule="evenodd" d="M87.5409 145.512L94.8125 149.363L98.9931 151.687V154.236H87.5409H71.3726L79.4574 149.874L87.5409 145.512Z" fill="white"/>
<path d="M99.6607 154.236H71.3726C71.0628 154.236 70.7931 154.023 70.7237 153.722C70.6516 153.42 70.7984 153.109 71.0762 152.97L87.2431 144.915C87.4314 144.82 87.6543 144.82 87.8413 144.916L99.9651 151.094C100.188 151.208 100.327 151.438 100.327 151.687V153.569C100.328 153.937 100.029 154.236 99.6607 154.236ZM74.2099 152.901H98.9931V152.094L87.5382 146.26L74.2099 152.901Z" fill="#A6A4A4"/>
<path d="M74.2913 166.921C73.9227 166.921 73.6237 166.622 73.6237 166.253V152.901C73.6237 152.532 73.9227 152.233 74.2913 152.233C74.6598 152.233 74.9589 152.532 74.9589 152.901V166.253C74.9589 166.622 74.6598 166.921 74.2913 166.921Z" fill="#A6A4A4"/>
<path d="M80.9674 164.25C80.5989 164.25 80.2998 163.951 80.2998 163.583V154.236C80.2998 153.868 80.5989 153.569 80.9674 153.569C81.3359 153.569 81.635 153.868 81.635 154.236V163.583C81.635 163.951 81.3359 164.25 80.9674 164.25Z" fill="#A6A4A4"/>
<path d="M87.6436 166.921C87.275 166.921 86.976 166.622 86.976 166.253V154.236C86.976 153.868 87.275 153.569 87.6436 153.569C88.0121 153.569 88.3112 153.868 88.3112 154.236V166.253C88.3112 166.622 88.0121 166.921 87.6436 166.921Z" fill="#A6A4A4"/>
<path d="M94.3198 164.25C93.9513 164.25 93.6522 163.951 93.6522 163.583V154.236C93.6522 153.868 93.9513 153.569 94.3198 153.569C94.6884 153.569 94.9874 153.868 94.9874 154.236V163.583C94.9874 163.951 94.6884 164.25 94.3198 164.25Z" fill="#A6A4A4"/>
<path d="M166.422 174.932C166.053 174.932 165.754 174.633 165.754 174.265V168.924C165.754 168.555 166.053 168.256 166.422 168.256C166.791 168.256 167.09 168.555 167.09 168.924V174.265C167.09 174.633 166.791 174.932 166.422 174.932Z" fill="#A6A4A4"/>
<path d="M4.94792 112.103H7.48698C10.6771 112.103 12.4609 113.457 12.4609 115.827V115.853C12.4609 118.106 10.5339 119.603 7.64323 119.603C4.88281 119.603 2.91667 118.288 2.69531 116.27L2.68229 116.153H0.924479L0.9375 116.322C1.15885 119.213 3.82812 121.257 7.65625 121.257C11.4714 121.257 14.2708 118.965 14.2708 115.892V115.866C14.2708 113.288 12.6562 111.504 9.98698 111.205V111.127C12.2396 110.619 13.7109 108.887 13.7109 106.726V106.7C13.7109 103.887 11.25 101.869 7.7474 101.869C4.20573 101.869 1.78385 103.718 1.51042 106.674L1.4974 106.856H3.25521L3.28125 106.674C3.56771 104.733 5.20833 103.523 7.68229 103.523C10.2604 103.523 11.888 104.825 11.888 106.843V106.869C11.888 109.03 10.1302 110.502 7.40885 110.502H4.94792V112.103ZM15.612 120.957H17.5L19.5964 115.202H27.5521L29.6484 120.957H31.5234L24.4531 102.168H22.6953L15.612 120.957ZM23.5547 104.343H23.5937L26.9922 113.666H20.1562L23.5547 104.343ZM33.8411 120.957H35.5078V105.515H35.599L42.1094 120.957H43.6589L50.1823 105.515H50.2734V120.957H51.9401V102.168H49.8958L42.9297 118.718H42.8516L35.8854 102.168H33.8411V120.957ZM55.7161 120.957H67.0573V119.343H57.487V112.129H66.5755V110.541H57.487V103.783H67.0573V102.168H55.7161V120.957ZM75.2865 120.957H77.0703V103.783H83.2812V102.168H69.0885V103.783H75.2865V120.957ZM87.5651 120.957V112.051H88.2682L97.2135 120.957H99.6354L89.7917 111.179L98.8281 102.168H96.5495L88.2682 110.632H87.5651V102.168H85.7943V120.957H87.5651ZM101.836 120.957H103.568L114.635 105.137H114.701V120.957H116.458V102.168H114.727L103.659 118.015H103.594V102.168H101.836V120.957Z" fill="black"/>
<path d="M133.254 110.25C133.783 111.017 134.448 111.682 135.213 112.209C134.448 112.736 133.783 113.401 133.254 114.166C132.725 113.4 132.061 112.736 131.295 112.209C132.062 111.682 132.727 111.017 133.254 110.25ZM133.254 105.957C133.254 109.389 130.433 112.21 127 112.21C130.432 112.21 133.254 115.03 133.254 118.462C133.254 115.032 136.076 112.21 139.508 112.21C136.077 112.209 133.254 109.389 133.254 105.957Z" fill="#A6A4A4"/>
<path d="M180.966 124.668H182.62V119.343H180.211V102.168H178.44V119.343H167.659V102.168H165.888V120.957H180.966V124.668ZM192.464 121.049H194.221V119.174C199.391 119.082 202.62 116.114 202.62 111.53V111.504C202.62 106.895 199.378 103.939 194.221 103.861V102.077H192.464V103.861H192.451C187.294 103.939 184.065 106.895 184.065 111.504V111.53C184.065 116.114 187.294 119.082 192.451 119.174H192.464V121.049ZM192.451 117.572C188.401 117.481 185.875 115.137 185.875 111.53V111.504C185.875 107.884 188.401 105.541 192.451 105.463H192.464V117.572H192.451ZM194.221 117.572V105.463C198.284 105.541 200.81 107.884 200.81 111.504V111.53C200.81 115.137 198.271 117.481 194.221 117.572ZM209.156 120.957H210.94V103.783H217.151V102.168H202.958V103.783H209.156V120.957Z" fill="black"/>
<path d="M129.952 120.968H152.592C155.766 120.968 157.393 119.341 157.393 116.216V96.2614C157.393 93.1202 155.766 91.4926 152.592 91.4926H129.952C126.778 91.4926 125.15 93.1039 125.15 96.2614V116.216C125.15 119.357 126.778 120.968 129.952 120.968ZM129.805 118.95C128.096 118.95 127.169 118.055 127.169 116.297V101.405C127.169 99.6469 128.096 98.7354 129.805 98.7354H152.722C154.398 98.7354 155.375 99.6469 155.375 101.405V116.297C155.375 118.055 154.398 118.95 152.722 118.95H129.805Z" fill="#A6A4A4"/>
</g>
<defs>
<clipPath id="clip0">
<rect width="218" height="180" fill="white"/>
</clipPath>
</defs>
</svg>
