<svg width="1024" height="1024" viewBox="0 0 1024 1024" fill="none" xmlns="http://www.w3.org/2000/svg">
<path d="M229.167 889.083H808.75C890 889.083 931.667 847.417 931.667 767.417V256.583C931.667 176.167 890 134.5 808.75 134.5H229.167C147.917 134.5 106.25 175.75 106.25 256.583V767.417C106.25 847.833 147.917 889.083 229.167 889.083ZM225.417 837.417C181.667 837.417 157.917 814.5 157.917 769.5V388.25C157.917 343.25 181.667 319.917 225.417 319.917H812.083C855 319.917 880 343.25 880 388.25V769.5C880 814.5 855 837.417 812.083 837.417H225.417Z" fill="#A6A4A4"/>
<path d="M185.774 728.893C184.122 728.893 182.781 727.51 182.781 725.806V670.336C182.781 663.91 193.544 657.897 198.429 657.897H447.002C449.193 657.897 450.486 658.86 451.18 659.662C453.018 661.78 452.695 664.706 452.384 667.546C452.276 668.484 452.168 669.447 452.168 670.336V719.633C452.168 721.337 450.827 722.719 449.175 722.719C447.523 722.719 446.188 721.337 446.188 719.633V670.336C446.188 669.225 446.313 668.021 446.439 666.854C446.529 666.052 446.66 664.836 446.643 664.082L198.429 664.07C195.334 664.07 188.959 668.527 188.767 670.355V725.806C188.767 727.51 187.426 728.893 185.774 728.893Z" fill="#A6A4A4"/>
<path d="M213.312 696.772C207.655 696.772 203.051 692.03 203.051 686.196C203.051 680.362 207.655 675.621 213.312 675.621C218.963 675.621 223.567 680.362 223.567 686.196C223.567 692.03 218.963 696.772 213.312 696.772ZM213.312 681.967C211.085 681.967 209.199 683.906 209.199 686.203C209.199 688.499 211.079 690.438 213.312 690.438C215.533 690.438 217.419 688.499 217.419 686.203C217.419 683.906 215.533 681.967 213.312 681.967Z" fill="#A6A4A4"/>
<path d="M284.426 696.772C278.769 696.772 274.165 692.03 274.165 686.196C274.165 680.362 278.769 675.621 284.426 675.621C290.077 675.621 294.681 680.362 294.681 686.196C294.681 692.03 290.083 696.772 284.426 696.772ZM284.426 681.967C282.199 681.967 280.313 683.906 280.313 686.203C280.313 688.499 282.193 690.438 284.426 690.438C286.647 690.438 288.533 688.499 288.533 686.203C288.533 683.906 286.653 681.967 284.426 681.967Z" fill="#A6A4A4"/>
<path d="M248.507 696.772C242.85 696.772 238.246 692.03 238.246 686.196C238.246 680.362 242.85 675.621 248.507 675.621C254.158 675.621 258.762 680.362 258.762 686.196C258.762 692.03 254.164 696.772 248.507 696.772ZM248.507 681.967C246.28 681.967 244.394 683.906 244.394 686.203C244.394 688.499 246.274 690.438 248.507 690.438C250.728 690.438 252.614 688.499 252.614 686.203C252.614 683.906 250.734 681.967 248.507 681.967Z" fill="#A6A4A4"/>
<path d="M404.611 699.062C403.815 699.062 403.025 698.747 402.426 698.124C401.235 696.877 401.241 694.87 402.45 693.636L423.074 672.571C424.271 671.337 426.223 671.355 427.426 672.59C428.617 673.837 428.611 675.843 427.402 677.078L406.778 698.142C406.174 698.76 405.395 699.062 404.611 699.062Z" fill="#A6A4A4"/>
<path d="M425.235 699.062C424.451 699.062 423.666 698.76 423.074 698.149L402.45 677.084C401.241 675.85 401.235 673.843 402.426 672.596C403.617 671.361 405.569 671.343 406.778 672.578L427.402 693.642C428.611 694.877 428.617 696.883 427.426 698.13C426.821 698.754 426.031 699.062 425.235 699.062Z" fill="#A6A4A4"/>
<path d="M362.376 701.112H338.43C336.778 701.112 335.437 699.729 335.437 698.025C335.437 696.321 336.778 694.938 338.43 694.938H362.376C364.028 694.938 365.369 696.321 365.369 698.025C365.369 699.729 364.028 701.112 362.376 701.112Z" fill="#A6A4A4"/>
<path d="M599.329 855.452H505.646C502.682 855.452 494.08 853.618 494.08 848V644.074C494.08 642.876 494.541 641.765 495.385 640.938C497.366 638.987 500.916 639.153 504.077 639.314C504.676 639.345 505.209 639.37 505.646 639.37H599.155C601.149 638.826 603.274 640.289 603.274 642.339C603.274 643.315 602.819 644.37 601.837 644.988V847.994C601.837 848.321 602.172 848.902 602.412 849.327C602.873 850.142 603.837 851.834 602.843 853.631C602.382 854.464 601.4 855.452 599.329 855.452ZM500.066 847.525C500.982 848.315 503.976 849.278 505.646 849.278H595.97C595.892 848.877 595.851 848.445 595.851 848V645.549H505.646C505.137 645.549 504.496 645.518 503.79 645.488C502.922 645.438 501.174 645.352 500.066 645.457V847.525Z" fill="#A6A4A4"/>
<path d="M603.777 818.565H502.054C500.354 818.565 498.977 817.145 498.977 815.392C498.977 813.638 500.348 812.218 502.054 812.218H603.777C605.477 812.218 606.854 813.638 606.854 815.392C606.854 817.145 605.477 818.565 603.777 818.565Z" fill="#A6A4A4"/>
<path d="M554.029 844.469C549.048 844.469 545.145 840.444 545.145 835.308C545.145 830.35 549.132 826.325 554.029 826.325C558.836 826.325 562.745 830.35 562.745 835.308C562.745 840.358 558.83 844.469 554.029 844.469ZM554.029 832.665C552.52 832.665 551.293 833.851 551.293 835.308C551.293 836.919 552.467 838.129 554.029 838.129C555.442 838.129 556.597 836.863 556.597 835.308C556.591 833.9 555.394 832.665 554.029 832.665Z" fill="#A6A4A4"/>
<path d="M595.851 664.07H500.066C498.414 664.07 497.073 662.687 497.073 660.983C497.073 659.279 498.414 657.897 500.066 657.897H595.851C597.503 657.897 598.844 659.279 598.844 660.983C598.844 662.687 597.503 664.07 595.851 664.07Z" fill="#A6A4A4"/>
<path d="M598.844 790.629C597.192 790.629 595.851 789.246 595.851 787.542V722.719C595.851 721.015 597.192 719.633 598.844 719.633H646.736C648.389 719.633 649.73 721.015 649.73 722.719V762.848C649.73 764.552 648.389 765.935 646.736 765.935C645.084 765.935 643.743 764.552 643.743 762.848V725.806H601.837V787.542C601.837 789.246 600.496 790.629 598.844 790.629Z" fill="#A6A4A4"/>
<path d="M631.77 738.153H625.783V744.327H631.77V738.153Z" fill="#A6A4A4"/>
<path d="M619.797 738.153H613.811V744.327H619.797V738.153Z" fill="#A6A4A4"/>
<path d="M631.77 756.674H625.783V762.848H631.77V756.674Z" fill="#A6A4A4"/>
<path d="M619.797 756.674H613.811V762.848H619.797V756.674Z" fill="#A6A4A4"/>
<path d="M619.797 775.195H613.811V781.369H619.797V775.195Z" fill="#A6A4A4"/>
<path d="M598.844 852.365C597.192 852.365 595.851 850.982 595.851 849.278V806.063C595.851 804.359 597.192 802.976 598.844 802.976C600.496 802.976 601.837 804.359 601.837 806.063V849.278C601.837 850.982 600.496 852.365 598.844 852.365Z" fill="#A6A4A4"/>
<path d="M628.777 852.365C627.124 852.365 625.783 850.982 625.783 849.278V806.063C625.783 804.359 627.124 802.976 628.777 802.976C630.429 802.976 631.77 804.359 631.77 806.063V849.278C631.77 850.982 630.429 852.365 628.777 852.365Z" fill="#A6A4A4"/>
<path d="M652.723 852.365C651.07 852.365 649.729 850.982 649.729 849.278V806.063C649.729 804.359 651.07 802.976 652.723 802.976C654.375 802.976 655.716 804.359 655.716 806.063V849.278C655.716 850.982 654.375 852.365 652.723 852.365Z" fill="#A6A4A4"/>
<path d="M676.669 852.365C675.016 852.365 673.675 850.982 673.675 849.278V806.063C673.675 804.359 675.016 802.976 676.669 802.976C678.321 802.976 679.662 804.359 679.662 806.063V849.278C679.662 850.982 678.321 852.365 676.669 852.365Z" fill="#A6A4A4"/>
<path d="M700.615 852.365C698.963 852.365 697.622 850.982 697.622 849.278V806.063C697.622 804.359 698.963 802.976 700.615 802.976C702.267 802.976 703.608 804.359 703.608 806.063V849.278C703.608 850.982 702.267 852.365 700.615 852.365Z" fill="#A6A4A4"/>
<path d="M703.608 806.063H601.837C600.185 806.063 598.844 804.68 598.844 802.976C598.844 801.273 600.185 799.89 601.837 799.89H703.608C705.26 799.89 706.601 801.273 706.601 802.976C706.601 804.68 705.26 806.063 703.608 806.063Z" fill="#A6A4A4"/>
<path d="M649.73 713.459H589.865V725.806H649.73V713.459Z" fill="white"/>
<path d="M652.723 725.806H592.858C591.205 725.806 589.865 724.424 589.865 722.72V710.372C589.865 708.668 591.205 707.286 592.858 707.286H652.723C654.375 707.286 655.716 708.668 655.716 710.372V722.72C655.716 724.424 654.375 725.806 652.723 725.806ZM595.851 719.633H649.73V713.459H595.851V719.633Z" fill="#A6A4A4"/>
<path d="M637.757 701.112H595.851V713.459H637.757V701.112Z" fill="white"/>
<path d="M640.75 713.459H598.844C597.192 713.459 595.851 712.076 595.851 710.372V698.025C595.851 696.321 597.192 694.938 598.844 694.938H640.75C642.402 694.938 643.743 696.321 643.743 698.025V710.372C643.743 712.076 642.402 713.459 640.75 713.459ZM601.837 707.285H637.756V701.112H601.837V707.285Z" fill="#A6A4A4"/>
<path d="M631.77 685.678H619.797V698.025H631.77V685.678Z" fill="white"/>
<path d="M631.77 698.025C631.77 699.729 630.429 701.112 628.777 701.112H616.804C615.152 701.112 613.811 699.729 613.811 698.025V685.678C613.811 683.974 615.152 682.591 616.804 682.591H628.777C630.429 682.591 631.77 683.974 631.77 685.678V698.025ZM622.79 694.938H628.777V688.765H622.79V694.938Z" fill="#A6A4A4"/>
<path d="M625.999 687.783C624.299 687.783 622.922 686.363 622.922 684.61V664.342C622.922 662.589 624.293 661.169 625.999 661.169C627.705 661.169 629.076 662.589 629.076 664.342V684.61C629.076 686.363 627.699 687.783 625.999 687.783Z" fill="#A6A4A4"/>
<path d="M713.36 775.195H638.828C637.535 775.195 636.392 774.343 635.985 773.078C635.577 771.812 636.002 770.423 637.038 769.633L671.431 743.556C672.395 742.827 673.694 742.778 674.723 743.407C674.921 743.531 675.807 743.531 676.094 743.531C676.423 743.531 677.07 743.13 677.543 742.833C678.609 742.173 680.021 742.21 681.003 742.975L696.562 755.347L715.15 769.627C716.186 770.417 716.605 771.812 716.204 773.072C715.803 774.331 714.653 775.195 713.36 775.195ZM647.856 769.022H704.339L678.878 749.087C677.609 749.649 676.202 750.05 673.676 749.507L647.856 769.022Z" fill="#A6A4A4"/>
<path d="M676.089 749.469C671.485 749.469 667.887 745.753 667.887 741.012C667.887 736.252 671.563 732.381 676.089 732.381C680.704 732.381 684.464 736.252 684.464 741.012C684.47 745.679 680.71 749.469 676.089 749.469ZM676.089 738.721C674.939 738.721 674.035 739.728 674.035 741.012C674.035 742.259 674.879 743.129 676.089 743.129C677.34 743.129 678.316 742.197 678.316 741.012C678.316 739.771 677.292 738.721 676.089 738.721Z" fill="#A6A4A4"/>
<path d="M676.669 741.24C675.016 741.24 673.675 739.857 673.675 738.154V688.765C673.675 687.061 675.016 685.678 676.669 685.678C678.321 685.678 679.662 687.061 679.662 688.765V738.154C679.662 739.857 678.321 741.24 676.669 741.24Z" fill="#A6A4A4"/>
<path d="M646.736 802.976C645.083 802.976 643.742 801.593 643.742 799.89V769.022C643.742 767.318 645.083 765.935 646.736 765.935C648.388 765.935 649.729 767.318 649.729 769.022V799.89C649.729 801.593 648.388 802.976 646.736 802.976Z" fill="#A6A4A4"/>
<path d="M700.615 802.976C698.963 802.976 697.622 801.593 697.622 799.89V769.022C697.622 767.318 698.963 765.935 700.615 765.935C702.267 765.935 703.608 767.318 703.608 769.022V799.89C703.608 801.593 702.267 802.976 700.615 802.976Z" fill="#A6A4A4"/>
<path d="M716.904 719.633C716.88 719.633 716.832 719.639 716.784 719.633H676.669C675.016 719.633 673.675 718.25 673.675 716.546V691.852C673.675 690.148 675.016 688.765 676.669 688.765H716.784C717.832 688.765 718.802 689.326 719.346 690.253C719.891 691.179 719.927 692.321 719.442 693.284L714 704.051L719.125 714.478C719.604 715.021 719.897 715.756 719.897 716.552C719.897 718.25 718.556 719.633 716.904 719.633ZM679.662 713.459H711.911L707.96 705.421C707.529 704.532 707.535 703.483 707.978 702.594L711.851 694.938H679.662V713.459Z" fill="#A6A4A4"/>
<path d="M331.097 796.71C329.888 796.71 328.732 795.963 328.247 794.734C323.213 782.017 311.419 773.917 297.758 773.972C296.633 773.972 295.501 773.979 294.376 774.121C293.364 774.269 292.43 773.88 291.754 773.145C291.083 772.404 290.796 771.379 290.975 770.385C291.508 767.472 291.778 764.706 291.778 762.156C291.778 740.777 274.908 723.38 254.164 723.38C246.118 723.38 238.527 725.855 232.2 730.547C222.292 737.752 216.383 749.562 216.383 762.162V763.576C216.383 764.656 215.85 765.657 214.976 766.243C214.102 766.823 213.001 766.91 212.037 766.465C202.542 762.02 191.198 761.415 180.153 765.329C180.099 765.348 180.045 765.366 179.997 765.385C179.626 765.496 179.261 765.533 178.89 765.508H178.884C178.459 765.478 178.04 765.348 177.674 765.144C177.255 764.916 176.884 764.589 176.603 764.175C176.417 763.897 176.268 763.588 176.172 763.255C176.148 763.181 176.13 763.113 176.118 763.039C173.999 753.982 166.773 747.654 157.697 746.914C149.298 746.241 138.289 750.76 132.38 765.496C131.728 767.12 129.932 767.873 128.363 767.218C126.789 766.552 126.047 764.694 126.699 763.076C133.865 745.191 147.718 739.703 158.188 740.592C168.874 741.462 177.585 748.309 181.171 758.359C191.126 755.458 201.243 755.785 210.355 758.964C211.271 745.518 217.964 733.14 228.644 725.386C236.001 719.935 244.831 717.046 254.176 717.046C278.308 717.046 297.944 737.283 297.944 762.168C297.944 763.916 297.836 765.749 297.62 767.638C297.782 767.638 297.956 767.638 298.117 767.638C313.952 767.638 328.02 777.337 333.959 792.345C334.599 793.969 333.845 795.821 332.276 796.481C331.881 796.636 331.486 796.71 331.097 796.71Z" fill="#A6A4A4"/>
<path d="M741.472 772.738C748.985 772.738 755.247 784.548 755.247 798.827C755.247 813.107 748.985 824.911 741.472 824.911C733.815 824.911 727.554 813.107 727.554 798.827C727.554 784.548 733.815 772.738 741.472 772.738ZM741.472 766.391C730.218 766.391 721.399 780.64 721.399 798.821C721.399 817.003 730.218 831.245 741.472 831.245C752.643 831.245 761.395 817.003 761.395 798.821C761.395 780.64 752.643 766.391 741.472 766.391Z" fill="#A6A4A4"/>
<path d="M795.352 772.738C802.865 772.738 809.127 784.548 809.127 798.827C809.127 813.107 802.865 824.911 795.352 824.911C787.695 824.911 781.433 813.107 781.433 798.827C781.433 784.548 787.695 772.738 795.352 772.738ZM795.352 766.391C784.097 766.391 775.279 780.64 775.279 798.821C775.279 817.003 784.097 831.245 795.352 831.245C806.523 831.245 815.275 817.003 815.275 798.821C815.275 780.64 806.523 766.391 795.352 766.391Z" fill="#A6A4A4"/>
<path d="M742.521 852.365C740.869 852.365 739.528 850.982 739.528 849.278V824.584C739.528 822.88 740.869 821.497 742.521 821.497C744.173 821.497 745.514 822.88 745.514 824.584V849.278C745.514 850.982 744.173 852.365 742.521 852.365Z" fill="#A6A4A4"/>
<path d="M443.931 856.983C437.711 856.983 431.976 853.087 426.426 849.328C421.41 845.92 416.68 842.71 412.304 842.71C407.922 842.71 403.145 845.926 398.086 849.328C392.495 853.094 386.724 856.983 380.498 856.983C374.385 856.983 368.662 853.112 363.131 849.371C358.288 846.099 353.277 842.71 348.877 842.71C344.537 842.71 339.801 845.926 334.785 849.328C332.989 850.544 331.193 851.766 329.403 852.847C327.948 853.73 326.056 853.236 325.194 851.711C324.332 850.198 324.823 848.254 326.296 847.371C328.002 846.34 329.702 845.185 331.408 844.025C336.958 840.259 342.699 836.363 348.877 836.363C355.115 836.363 360.91 840.277 366.507 844.062C371.506 847.445 376.223 850.637 380.498 850.637C384.886 850.637 389.663 847.42 394.722 844.012C400.313 840.253 406.084 836.363 412.304 836.363C418.524 836.363 424.259 840.259 429.809 844.018C434.825 847.426 439.555 850.637 443.931 850.637C448.313 850.637 453.09 847.42 458.149 844.012C463.74 840.253 469.511 836.363 475.731 836.363C481.903 836.363 487.633 840.277 493.17 844.062C496.433 846.284 499.516 848.389 502.527 849.636C504.101 850.285 504.874 852.131 504.233 853.76C503.605 855.384 501.809 856.18 500.234 855.52C496.636 854.038 493.146 851.655 489.776 849.346C484.777 845.926 480.054 842.704 475.731 842.704C471.349 842.704 466.572 845.92 461.513 849.328C455.922 853.094 450.145 856.983 443.931 856.983Z" fill="#A6A4A4"/>
<path d="M443.931 837.425C437.711 837.425 431.976 833.529 426.426 829.77C421.41 826.362 416.68 823.152 412.304 823.152C407.922 823.152 403.145 826.368 398.086 829.77C392.495 833.536 386.724 837.425 380.498 837.425C374.386 837.425 368.662 833.554 363.131 829.813C358.288 826.541 353.277 823.152 348.877 823.152C344.453 823.152 339.64 826.411 334.539 829.862C333.186 830.77 331.839 831.69 330.486 832.548C329.038 833.462 327.134 832.992 326.254 831.511C325.368 830.017 325.817 828.06 327.26 827.146C328.565 826.319 329.864 825.442 331.157 824.559C336.784 820.75 342.609 816.811 348.871 816.811C355.109 816.811 360.904 820.725 366.501 824.516C371.5 827.893 376.217 831.091 380.492 831.091C384.88 831.091 389.657 827.874 394.716 824.467C400.307 820.707 406.078 816.817 412.298 816.817C418.518 816.817 424.253 820.713 429.803 824.479C434.819 827.881 439.549 831.097 443.925 831.097C448.307 831.097 453.084 827.881 458.143 824.473C463.734 820.707 469.505 816.817 475.725 816.817C481.891 816.817 487.615 820.725 493.152 824.504C496.415 826.732 499.504 828.844 502.509 830.078C504.089 830.727 504.856 832.573 504.227 834.202C503.599 835.832 501.797 836.604 500.228 835.974C496.624 834.493 493.128 832.103 489.752 829.794C484.753 826.387 480.036 823.164 475.719 823.164C471.337 823.164 466.56 826.38 461.501 829.788C455.922 833.536 450.145 837.425 443.931 837.425Z" fill="#A6A4A4"/>
<path d="M320.669 819.978C319.759 819.978 318.855 819.564 318.25 818.768C317.202 817.391 317.43 815.397 318.771 814.317L325.949 808.495C328.002 807.217 329.702 806.063 331.408 804.902C336.958 801.136 342.699 797.241 348.877 797.241C355.115 797.241 360.91 801.155 366.507 804.939C371.506 808.316 376.223 811.514 380.498 811.514C384.886 811.514 389.663 808.298 394.722 804.89C400.313 801.13 406.084 797.241 412.304 797.241C418.524 797.241 424.259 801.13 429.809 804.896C434.82 808.298 439.555 811.514 443.931 811.514C448.313 811.514 453.09 808.298 458.149 804.89C463.74 801.13 469.511 797.241 475.731 797.241C481.904 797.241 487.627 801.149 493.17 804.933C496.433 807.162 499.51 809.267 502.527 810.508C504.102 811.156 504.874 813.002 504.239 814.632C503.605 816.255 501.839 817.046 500.234 816.397C496.636 814.916 493.146 812.527 489.77 810.224C484.771 806.81 480.054 803.581 475.731 803.581C471.349 803.581 466.572 806.797 461.513 810.205C455.922 813.965 450.151 817.854 443.931 817.854C437.711 817.854 431.976 813.965 426.426 810.199C421.416 806.797 416.68 803.581 412.304 803.581C407.922 803.581 403.145 806.797 398.086 810.199C392.495 813.965 386.724 817.854 380.498 817.854C374.386 817.854 368.662 813.99 363.137 810.242C358.288 806.97 353.283 803.581 348.877 803.581C344.537 803.581 339.801 806.797 334.785 810.199C332.989 811.421 331.193 812.638 329.403 813.718L322.566 819.293C322.01 819.756 321.339 819.978 320.669 819.978Z" fill="#A6A4A4"/>
<path fill-rule="evenodd" clip-rule="evenodd" d="M876.457 655.353C885.174 655.353 892.184 662.583 892.184 671.571C892.184 679.325 887.059 686.159 880.049 687.925L876.457 688.765H795.765H795.256C784.995 688.765 776.62 679.288 776.62 668.54C776.62 657.613 785.169 648.556 795.765 648.556C799.183 648.556 802.434 649.488 805.343 651.075C807.911 636.092 819.878 624.578 835.94 624.578C852.182 624.578 866.885 640.061 867.232 657.681C870.303 656.619 873.206 655.353 876.457 655.353Z" fill="white"/>
<path d="M880.049 689.469C879.864 689.469 879.672 689.45 879.487 689.413L875.895 688.709L795.765 688.765C783.128 688.765 773.627 679.202 773.627 666.997C773.627 654.495 783.349 644.698 795.765 644.698C798.166 644.698 800.608 645.21 803.266 646.297C807.463 631.394 820.406 621.3 835.941 621.3C852.541 621.3 867.544 635.894 869.908 653.427C871.956 652.785 874.099 652.279 876.463 652.279C886.79 652.279 895.183 660.941 895.183 671.584C895.183 680.326 889.658 687.147 880.768 689.395C880.528 689.438 880.289 689.469 880.049 689.469ZM795.765 650.865C786.707 650.865 779.613 657.946 779.613 666.991C779.613 675.739 786.48 682.585 795.256 682.585H876.457L879.924 683.221C885.743 681.542 889.191 677.22 889.191 671.565C889.191 664.324 883.48 658.434 876.457 658.434C874.087 658.434 871.854 659.212 869.28 660.113L868.172 660.502C867.262 660.811 866.274 660.657 865.502 660.095C864.724 659.527 864.251 658.613 864.233 657.638C863.922 641.839 850.434 627.461 835.935 627.461C821.83 627.461 810.719 637.005 808.283 651.217C808.121 652.193 807.511 653.02 806.655 653.452C805.793 653.878 804.781 653.866 803.943 653.409C800.758 651.68 798.154 650.865 795.765 650.865Z" fill="#A6A4A4"/>
<path d="M862.269 788.431C861.934 788.431 861.599 788.376 861.263 788.252C859.653 787.678 858.809 785.875 859.366 784.221C862.185 775.825 858.168 768.447 853.463 764.348C847.961 759.551 840.921 758.39 835.545 761.422C834.342 762.088 832.875 761.879 831.911 760.903C830.948 759.922 830.714 758.403 831.343 757.168C832.809 754.291 832.827 748.988 830.325 745.093C828.248 741.876 824.997 740.425 820.651 740.833C819.675 740.901 818.675 740.499 818.029 739.703C817.388 738.907 817.155 737.839 817.418 736.845C820.118 726.529 814.562 719.441 807.852 717.003C800.71 714.397 791.49 716.54 786.965 727.14C786.504 728.214 785.504 728.942 784.361 729.029C783.241 729.134 782.134 728.535 781.529 727.541C777.165 720.312 769.191 715.817 760.72 715.817C747.238 715.817 736.271 727.127 736.271 741.024C736.271 742.777 734.9 744.197 733.194 744.197C731.488 744.197 730.117 742.777 730.117 741.024C730.117 723.627 743.844 709.477 760.714 709.477C769.568 709.477 778.003 713.428 783.732 720.04C790.407 709.78 801.506 707.971 809.893 711.027C818.101 714.015 825.5 722.485 824.093 734.56C828.876 735.11 832.821 737.53 835.437 741.592C837.688 745.086 838.724 749.568 838.449 753.736C844.812 752.55 851.769 754.575 857.432 759.514C865.292 766.373 868.333 776.887 865.173 786.307C864.736 787.604 863.544 788.431 862.269 788.431Z" fill="#A6A4A4"/>
<path d="M326.14 853.995C325.422 853.995 324.703 853.741 324.117 853.217C322.836 852.062 322.704 850.062 323.817 848.735C329.397 842.135 328.445 830.516 321.662 822.293C314.005 813.02 302.422 811.971 290.664 819.496C289.892 819.99 288.952 820.114 288.096 819.824C287.234 819.54 286.539 818.879 286.198 818.015C279.798 802.044 267.933 797.123 258.78 797.876C249.052 798.673 241.311 805.464 239.042 815.187C238.982 815.459 238.899 815.724 238.767 815.978C238.599 816.311 238.378 816.607 238.114 816.854C237.779 817.169 237.402 817.391 236.989 817.527C236.576 817.669 236.115 817.719 235.678 817.657C235.307 817.614 234.953 817.502 234.618 817.323C234.379 817.2 234.163 817.046 233.972 816.86C226.213 809.927 214.348 804.495 201.656 817.947C200.591 819.077 198.891 819.225 197.651 818.311C196.418 817.391 196.023 815.675 196.724 814.28C196.556 800.976 192.12 797.691 181.422 789.764C174.585 784.733 166.456 782.072 157.907 782.072C156.207 782.072 154.83 780.652 154.83 778.899C154.83 777.146 156.201 775.726 157.907 775.726C167.749 775.726 177.112 778.794 184.996 784.603C194.73 791.814 201.058 796.5 202.423 808.878C212.48 801.371 223.753 801.463 234.469 809.217C238.474 799.204 247.411 792.444 258.289 791.549C268.807 790.66 282.474 795.796 290.437 812.323C306.223 803.834 319.214 809.545 326.338 818.181C335.192 828.911 336.108 843.839 328.457 852.908C327.852 853.624 327.002 853.995 326.14 853.995Z" fill="#A6A4A4"/>
<path fill-rule="evenodd" clip-rule="evenodd" d="M442.734 716.336L475.336 734.14L494.08 744.889V756.674H442.734H370.243L406.491 736.505L442.734 716.336Z" fill="white"/>
<path d="M497.073 756.674H370.243C368.854 756.674 367.645 755.686 367.334 754.297C367.01 752.902 367.669 751.463 368.914 750.821L441.399 713.576C442.243 713.138 443.243 713.138 444.081 713.582L498.438 742.147C499.438 742.672 500.061 743.734 500.061 744.889V753.587C500.067 755.291 498.726 756.674 497.073 756.674ZM382.964 750.5H494.08V746.771L442.722 719.793L382.964 750.5Z" fill="#A6A4A4"/>
<path d="M383.329 815.323C381.677 815.323 380.336 813.94 380.336 812.236V750.5C380.336 748.796 381.677 747.414 383.329 747.414C384.981 747.414 386.322 748.796 386.322 750.5V812.236C386.322 813.94 384.981 815.323 383.329 815.323Z" fill="#A6A4A4"/>
<path d="M413.262 802.976C411.609 802.976 410.268 801.593 410.268 799.889V756.674C410.268 754.97 411.609 753.587 413.262 753.587C414.914 753.587 416.255 754.97 416.255 756.674V799.889C416.255 801.593 414.914 802.976 413.262 802.976Z" fill="#A6A4A4"/>
<path d="M443.195 815.323C441.542 815.323 440.201 813.941 440.201 812.237V756.674C440.201 754.97 441.542 753.587 443.195 753.587C444.847 753.587 446.188 754.97 446.188 756.674V812.237C446.188 813.941 444.847 815.323 443.195 815.323Z" fill="#A6A4A4"/>
<path d="M473.128 802.976C471.475 802.976 470.134 801.593 470.134 799.889V756.674C470.134 754.97 471.475 753.587 473.128 753.587C474.78 753.587 476.121 754.97 476.121 756.674V799.889C476.121 801.593 474.78 802.976 473.128 802.976Z" fill="#A6A4A4"/>
<path d="M796.4 852.365C794.747 852.365 793.406 850.982 793.406 849.278V824.584C793.406 822.88 794.747 821.497 796.4 821.497C798.052 821.497 799.393 822.88 799.393 824.584V849.278C799.393 850.982 798.052 852.365 796.4 852.365Z" fill="#A6A4A4"/>
<path fill-rule="evenodd" clip-rule="evenodd" d="M414.757 395.948C414.315 400.055 402.15 408.269 397.276 414.198C364.966 452.752 375.813 475.565 347.935 471.458C325.364 468.038 309.658 452.752 298.368 477.842C295.052 484.914 289.744 497.235 290.845 506.584C291.511 512.745 294.386 514.567 299.035 516.62C302.359 517.995 309.658 520.272 311.866 521.87C317.181 542.63 318.948 542.166 341.736 542.63C351.91 542.853 366.298 542.166 376.472 539.889C380.23 538.978 383.771 537.612 387.095 537.148C392.627 549.47 411.44 564.979 423.822 572.051C431.563 576.39 440.419 579.578 449.493 582.087C459.891 585.051 469.181 585.962 474.264 593.721C483.787 608.096 462.533 624.293 519.182 620.417C546.843 618.364 527.155 595.551 544.41 572.97C552.601 574.799 568.09 590.533 573.847 595.327C588.452 607.649 597.076 603.773 607.482 591.899C628.721 568.175 624.079 561.335 605.049 544.683C601.725 541.719 593.543 535.103 592.652 530.085C601.508 524.603 604.6 522.326 618.322 521.878C629.395 521.415 640.235 522.789 650.85 523.7C657.049 524.164 678.287 526.441 674.304 516.181C672.313 511.163 658.599 506.6 655.491 499.984C672.088 500.895 695.76 507.975 711.481 488.805C733.161 461.885 712.14 411.018 724.754 395.508C726.529 393.223 731.836 388.205 732.503 385.472C732.944 383.642 730.953 366.99 712.806 378.856C684.486 397.338 703.95 430.179 691.568 447.75C685.819 455.509 674.746 455.733 666.556 449.804C654.833 441.134 650.625 404.865 612.131 396.651C595.759 393.231 587.786 397.562 580.929 392.544C574.296 387.526 567.873 380.678 556.374 380.909C545.309 381.133 540.002 390.035 539.769 401.213C537.778 400.99 513.882 391.633 502.159 388.668C488.219 385.017 472.73 382.739 457.458 384.106C434.67 386.159 436.437 377.489 419.623 372.703C401.476 367.453 392.844 375.212 382.888 384.106C367.623 397.793 369.832 380.686 345.711 382.963C316.499 386.383 345.936 419.464 380.013 406.687C385.987 404.386 391.744 401.421 396.835 398.457C401.701 395.484 409.666 390.011 414.757 395.948Z" fill="#ED1941"/>
</svg>
